HIERARCHY
ROOT ui
{
	 OFFSET 0 0 0
	 CHANNELS 3 XPosition YPosition Z Position
	 EndSite
	 {
	 OFFSET 0 -1 0
	 }
}
ROOT li
{
	 OFFSET 0 0 0
	 CHANNELS 3 XPosition YPosition Z Position
	 EndSite
	 {
	 OFFSET 0 -1 0
	 }
}
ROOT ul
{
	 OFFSET 0 0 0
	 CHANNELS 3 XPosition YPosition Z Position
	 EndSite
	 {
	 OFFSET 0 -1 0
	 }
}
ROOT ll
{
	 OFFSET 0 0 0
	 CHANNELS 3 XPosition YPosition Z Position
	 EndSite
	 {
	 OFFSET 0 -1 0
	 }
}
ROOT tt
{
	 OFFSET 0 0 0
	 CHANNELS 3 XPosition YPosition Z Position
	 EndSite
	 {
	 OFFSET 0 -1 0
	 }
}
ROOT tb
{
	 OFFSET 0 0 0
	 CHANNELS 3 XPosition YPosition Z Position
	 EndSite
	 {
	 OFFSET 0 -1 0
	 }
}
ROOT td
{
	 OFFSET 0 0 0
	 CHANNELS 3 XPosition YPosition Z Position
	 EndSite
	 {
	 OFFSET 0 -1 0
	 }
}
ROOT v
{
	 OFFSET 0 0 0
	 CHANNELS 3 XPosition YPosition Z Position
	 EndSite
	 {
	 OFFSET 0 -1 0
	 }
}
ROOT bn
{
	 OFFSET 0 0 0
	 CHANNELS 3 XPosition YPosition Z Position
	 EndSite
	 {
	 OFFSET 0 -1 0
	 }
}
MOTION
Frames: 10
Frame Time: 0.002
0.001016656994819641	8.561499714851379E-4	0		0.535511962890625	-2.368462646484375	0		-0.8962926025390625	0.11635533142089843	0		-0.6823963623046875	-2.51300439453125	0		1.3746229248046875	-0.720572265625	0		3.31753173828125	-0.08846286010742188	0		4.5462275390625	0.03524037170410156	0		5.59283056640625	0.11660225677490234	0		-0.19879811096191408	5.90819091796875	0		
0.008511672019958496	0.007329909801483154	0		0.4989512023925781	-2.35873486328125	0		-0.97283544921875	0.11637492370605469	0		-0.6110745849609375	-2.52190283203125	0		1.4119959716796875	-0.7303264770507812	0		3.289938232421875	-0.09587842559814454	0		4.545685546875	0.034625808715820314	0		5.59228662109375	0.11594818115234375	0		-0.21422010803222657	5.89781298828125	0		
-0.0030894229412078856	-0.003072072982788086	0		0.5052702941894531	-2.369264892578125	0		-0.9073662719726563	0.1165289535522461	0		-0.685660400390625	-2.515894287109375	0		1.4084132080078124	-0.7338252563476563	0		3.28443896484375	-0.08942811584472657	0		4.55109619140625	0.024972854614257814	0		5.59175048828125	0.11529032135009766	0		-0.1995	5.90725732421875	0		
-5.980610251426697E-4	-5.503209829330444E-4	0		0.5066721801757812	-2.3677548828125	0		-0.973894287109375	0.11551222991943359	0		-0.6743136596679687	-2.522404296875	0		1.3729356689453125	-0.72211669921875	0		3.28277783203125	-0.11099665069580078	0		4.52662548828125	0.03250944519042969	0		5.60021484375	0.11257798767089844	0		-0.1837573699951172	5.916705078125	0		
0.006934764862060547	0.005953527927398681	0		0.512118896484375	-2.3612568359375	0		-0.9663509521484375	0.12305149841308594	0		-0.6688788452148438	-2.51686328125	0		1.3524239501953126	-0.7184874267578125	0		3.307462890625	-0.07971929931640626	0		4.55512109375	0.031724365234375	0		5.5997080078125	0.11192816162109374	0		-0.18405279541015626	5.916265625	0		
0.0064438748359680175	0.0055240092277526855	0		0.5075082702636718	-2.366679931640625	0		-0.8988892211914062	0.11423001861572266	0		-0.6464580078125	-2.51641259765625	0		1.4158670654296874	-0.7253702392578125	0		3.25486279296875	-0.09694397735595703	0		4.54958642578125	0.023164321899414062	0		5.59023388671875	0.11334669494628906	0		-0.20037962341308593	5.9069443359375	0		
0.005975045204162597	0.005113253116607666	0		0.49598782348632814	-2.3610400390625	0		-0.9753524169921876	0.11433525848388672	0		-0.6840025634765625	-2.513564208984375	0		1.371384033203125	-0.7235555419921875	0		3.3033828125	-0.098788330078125	0		4.53913037109375	0.02365240478515625	0		5.58976904296875	0.11272444152832031	0		-0.20062490844726563	5.906541015625	0		
-0.002515217065811157	-0.0022266759872436523	0		0.502387939453125	-2.371494140625	0		-0.9048209838867187	0.10952894592285156	0		-0.6495769653320312	-2.519152099609375	0		1.4118778076171874	-0.729260009765625	0		3.291888671875	-0.10623480987548828	0		4.54274169921875	0.031070510864257814	0		5.59427001953125	0.10308882904052734	0		-0.18578231811523438	5.91606201171875	0		
-0.002938122034072876	-0.002597609043121338	0		0.5038878479003907	-2.369897216796875	0		-0.9762125244140625	0.1136476058959961	0		-0.6751141967773437	-2.522337890625	0		1.370460205078125	-0.7244217529296875	0		3.286641357421875	-0.07869936370849609	0		4.54826806640625	0.021496246337890625	0		5.5829541015625	0.11857557678222656	0		-0.1709102020263672	5.9266015625	0		
0.004707102775573731	0.00399960994720459	0		0.5054121704101563	-2.3682802734375	0		-0.97660791015625	0.11333308410644531	0		-0.6835437622070313	-2.5126123046875	0		1.3730526123046876	-0.7218436889648437	0		3.29105810546875	-0.10720542144775391	0		4.547875	0.0209820556640625	0		5.59345556640625	0.10194444274902344	0		-0.18615829467773437	5.91535400390625	0		
